<svg xmlns="http://www.w3.org/2000/svg" viewBox="0 0 48 48">
  <path fill="#7b519d" d="M36 2H12C6.477 2 2 6.477 2 12v24c0 5.523 4.477 10 10 10h24c5.523 0 10-4.477 10-10V12c0-5.523-4.477-10-10-10z"/>
  <path fill="#fff" d="M35.062 26.938a9.952 9.952 0 0 1-5.607-1.72c-.92-.6-1.955-.27-2.28.48l-.57 1.19c-.25.52-.92.66-1.43.36-1.46-.83-3.01-1.91-4.57-3.47s-2.64-3.11-3.47-4.57c-.3-.51-.16-1.18.36-1.43l1.19-.57c.75-.32 1.08-1.36.48-2.28A9.952 9.952 0 0 1 21.06 12H12c-.55 0-1 .45-1 1v3c0 8.837 7.163 16 16 16h3c.55 0 1-.45 1-1v-2.062z"/>
</svg>
